<svg width="32" height="28" viewBox="0 0 32 28" fill="none" xmlns="http://www.w3.org/2000/svg">
<path d="M27.7867 4.14666C27.1057 3.46533 26.2971 2.92485 25.4071 2.5561C24.5172 2.18735 23.5633 1.99756 22.6 1.99756C21.6367 1.99756 20.6828 2.18735 19.7929 2.5561C18.9029 2.92485 18.0943 3.46533 17.4133 4.14666L16 5.55999L14.5867 4.14666C13.2111 2.77107 11.3454 1.99827 9.4 1.99827C7.45462 1.99827 5.58892 2.77107 4.21333 4.14666C2.83774 5.52225 2.06494 7.38795 2.06494 9.33333C2.06494 11.2787 2.83774 13.1444 4.21333 14.52L5.62666 15.9333L16 26.3067L26.3733 15.9333L27.7867 14.52C28.468 13.839 29.0085 13.0304 29.3772 12.1405C29.746 11.2505 29.9358 10.2966 29.9358 9.33333C29.9358 8.37001 29.746 7.41613 29.3772 6.52619C29.0085 5.63624 28.468 4.82767 27.7867 4.14666Z" fill="url(#paint0_linear_80254_821)" stroke="url(#paint1_linear_80254_821)" stroke-width="3" stroke-linecap="round" stroke-linejoin="round"/>
<defs>
<linearGradient id="paint0_linear_80254_821" x1="2.79074" y1="-1.74731" x2="30.4682" y2="-1.55168" gradientUnits="userSpaceOnUse">
<stop stop-color="#4AC08F"/>
<stop offset="1" stop-color="#2FB4FF"/>
<stop offset="1" stop-color="#2FB4FF"/>
</linearGradient>
<linearGradient id="paint1_linear_80254_821" x1="2.79074" y1="-1.74731" x2="30.4682" y2="-1.55168" gradientUnits="userSpaceOnUse">
<stop stop-color="#4AC08F"/>
<stop offset="1" stop-color="#2FB4FF"/>
<stop offset="1" stop-color="#2FB4FF"/>
</linearGradient>
</defs>
</svg>
